# xmcd CD database file
#
# Track frame offsets:
#	150
#	17675
#	39772
#	59900
#	79257
#	100290
#	122015
#	143625
#	170697
#	204125
#
# Disc length: 3042 seconds
#
# Revision: 0
# Processed by: cddbd v1.5.1PL0 Copyright (c) Steve Scherf et al.
# Submitted via: CDex 1.51
#
DISCID=810be00a
DTITLE=木藤義一 - BALLADS ON PIANO
DYEAR=1900
DGENRE=New Age
TTITLE0=君に会うまでは
TTITLE1=片思い
TTITLE2=子午線
TTITLE3=愛という名のもとに
TTITLE4=悲しみは雪のように
TTITLE5=防波堤の上
TTITLE6=EDGE OF THE KNIFE
TTITLE7=もうひとつの土曜日
TTITLE8=遠くへ-1973年・春・20才
TTITLE9=MIDNIGHT FLIGHT ひとりぼっちのクリスマス・イブ
EXTD=
EXTT0=
EXTT1=
EXTT2=
EXTT3=
EXTT4=
EXTT5=
EXTT6=
EXTT7=
EXTT8=
EXTT9=
PLAYORDER=
